<svg xmlns="http://www.w3.org/2000/svg" viewBox="0 0 961.75 301.09"><title>share</title><path d="M128.72 197.15a44.17 44.17 0 0 1-16.64 36.62 65.52 65.52 0 0 1-42.54 14.06 107.73 107.73 0 0 1-35.89-6.29A106 106 0 0 1-.01 223.42l18.86-27a81.1 81.1 0 0 0 51.41 18.49 21.16 21.16 0 0 0 13.33-3.37 10.41 10.41 0 0 0 4.81-8.88 12.75 12.75 0 0 0-6.66-10 71.59 71.59 0 0 0-19.6-8.51l-19.61-6.61a119.58 119.58 0 0 1-15.17-8.14 35.56 35.56 0 0 1-17.75-32.55 41.93 41.93 0 0 1 17.38-34.77q17.2-13.32 44.39-13.32c18.12 0 36.25 6.29 54.37 18.49l-15.88 28.86a70.28 70.28 0 0 0-40-13.68c-13.32 0-20 3.7-20 10.73a10.6 10.6 0 0 0 6.29 9.62 131 131 0 0 0 21.08 8.14l20.71 7a112.72 112.72 0 0 1 14.8 7.77c10.79 5.93 15.97 16.29 15.97 31.46zM183.09 162.38v82.85h-42.91V32.54h42.91v75.83c12.95-12.95 27.74-19.6 43.65-19.6a54.24 54.24 0 0 1 40.69 17.38c11.1 11.47 16.64 27 16.64 45.87v93.21h-42.54V160.9c0-23.67-8.88-35.51-26.26-35.51a31.9 31.9 0 0 0-22.56 9.25c-6.29 6.28-9.62 15.53-9.62 27.74zM433.13 245.23h-40.69v-18.49a50.49 50.49 0 0 1-41.06 21.08 61.61 61.61 0 0 1-41.06-14.06 47.41 47.41 0 0 1-16.64-37.73c0-15.91 5.92-27.74 17.38-35.51s27.37-11.84 47-11.84h32.18v-1.14c0-16.64-8.88-24.78-26.26-24.78a64.08 64.08 0 0 0-23.67 4.44 76.74 76.74 0 0 0-21.08 11.1l-19.26-27.71a113.85 113.85 0 0 1 69.54-22.19c18.86 0 34 4.81 45.87 14.06s17.75 24 17.75 44.39v98.39zm-43.65-58.81v-7.4h-26.61c-17.38 0-25.89 5.18-25.89 15.91a15.59 15.59 0 0 0 6.27 12.61 29.66 29.66 0 0 0 17.75 4.44 31.65 31.65 0 0 0 20.34-7 22.28 22.28 0 0 0 8.14-18.56zM531.87 129.09c-12.95 0-22.56 4.44-28.85 13.69s-9.62 21.08-9.62 35.88v66.58h-42.53V90.99h42.91v20.34a72.09 72.09 0 0 1 20.71-15.91 56.18 56.18 0 0 1 25.52-7v40.69zM619.18 211.94a44.29 44.29 0 0 1-25.15-8.14 31.57 31.57 0 0 1-13.32-20.71h97.65V115.4a49.42 49.42 0 0 0-7.4-7.77 80.69 80.69 0 0 0-54-19.23 78.33 78.33 0 0 0-55.09 21.45c-15.54 14.43-23.3 33.66-23.3 58.07s7.77 43.65 22.93 58.07 34.77 21.82 58.07 21.82a87.12 87.12 0 0 0 61-24.78l-24-26.26a50.21 50.21 0 0 1-37.39 15.17zm-24.78-80.27a37.61 37.61 0 0 1 23.3-7.77 32 32 0 0 1 21.82 7.4 29.71 29.71 0 0 1 10.35 21.09h-67.68a31 31 0 0 1 12.21-20.71zM940.61 110.96c-14.06-15.17-30-22.56-48.09-22.56a65.21 65.21 0 0 0-46.61 19.6V91h-28.47v95.06c0 18.86-4.81 33.66-14.43 44v71h42.91v-76.2a54 54 0 0 0 45.5 22.93c18.86 0 35.14-7.77 49.19-22.93a81.68 81.68 0 0 0 21.09-57.32 79.9 79.9 0 0 0-21.09-56.58zm-33.29 88a35.62 35.62 0 0 1-26.26 11.84 32.28 32.28 0 0 1-25.52-11.84 46.12 46.12 0 0 1-10.36-30.7 47.76 47.76 0 0 1 10.36-31.07 32.43 32.43 0 0 1 25.52-12.58 32.77 32.77 0 0 1 26.26 12.58 45.52 45.52 0 0 1 10.73 31.07 42.9 42.9 0 0 1-10.73 30.73zM782.67 45.54L747.87 0l-34.74 45.54-34.77 45.5h43.28v85.44c0 23.67 8.88 35.51 26.26 35.51s26.26-11.84 26.26-35.51V90.99h43.28z" fill="#292624"/></svg>