<svg id="Layer_1" xmlns="http://www.w3.org/2000/svg" viewBox="0 0 1024 512"><style>.st0{fill:#00FF78;}</style><g id="logo-shareup"><path class="st0" d="M159.8 302.6c.7 14.1-5.5 27.7-16.6 36.6-12.2 9.6-27 14.4-42.5 14.1-12.2 0-24.4-2.2-35.9-6.3-12.2-4.1-23.7-10-33.7-18.1l18.9-27c14.4 11.8 32.5 18.5 51.4 18.5 4.8.4 9.2-.7 13.3-3.3 3-1.8 4.8-5.2 4.8-8.9-.4-4.1-3-8.1-6.7-10-5.9-3.7-12.6-6.7-19.6-8.5L73.7 283c-5.2-2.2-10.4-5.2-15.2-8.1-11.5-6.7-18.5-19.3-17.8-32.6-.4-13.7 6.3-26.6 17.4-34.8 11.5-8.9 26.3-13.3 44.4-13.3s36.2 6.3 54.4 18.5L141 241.6c-11.5-8.5-25.5-13.3-39.9-13.7-13.3 0-20 3.7-20 10.7 0 4.1 2.6 8.1 6.3 9.6 6.7 3.3 13.7 5.9 21.1 8.1l20.7 7c5.2 2.2 10 4.8 14.8 7.8 10.7 6 15.8 16.3 15.8 31.5zM214.2 267.8v82.9h-42.9V138h42.9v75.8c12.9-12.9 27.7-19.6 43.6-19.6 15.5-.4 30.3 6.3 40.7 17.4 11.1 11.5 16.6 27 16.6 45.9v93.2h-42.5v-84.3c0-23.7-8.9-35.5-26.3-35.5-8.5 0-16.6 3.3-22.6 9.2-6.2 6.3-9.5 15.5-9.5 27.7zM464.3 350.7h-40.7v-18.5c-9.6 13.3-24.8 21.1-41.1 21.1-14.8.4-29.6-4.4-41.1-14.1-11.1-9.2-17-23.3-16.6-37.7 0-15.9 5.9-27.7 17.4-35.5 11.5-7.8 27.4-11.8 47-11.8h32.2V253c0-16.6-8.9-24.8-26.3-24.8-8.1 0-16.3 1.5-23.7 4.4-7.4 2.6-14.8 6.3-21.1 11.1L331.1 216c20-14.8 44.4-22.6 69.5-22.2 18.9 0 34 4.8 45.9 14.1 11.8 9.2 17.8 24 17.8 44.4v98.4zm-43.7-58.8v-7.4H394c-17.4 0-25.9 5.2-25.9 15.9 0 4.8 2.2 9.6 6.3 12.6 5.2 3.3 11.5 4.8 17.8 4.4 7.4 0 14.4-2.2 20.3-7 5.5-4.5 8.5-11.5 8.1-18.5zM563 234.5c-12.9 0-22.6 4.4-28.9 13.7-6.3 9.2-9.6 21.1-9.6 35.9v66.6H482V196.4h42.9v20.3c5.9-6.7 12.9-11.8 20.7-15.9 7.8-4.4 16.6-6.7 25.5-7v40.7H563zM650.3 317.4c-8.9 0-17.8-3-25.2-8.1-7-4.8-11.8-12.2-13.3-20.7h97.6v-67.7c-2.2-3-4.8-5.5-7.4-7.8-15.2-12.9-34.4-19.6-54-19.2-20.3-.4-40.3 7.4-55.1 21.5-15.5 14.4-23.3 33.7-23.3 58.1s7.8 43.6 22.9 58.1c15.2 14.4 34.8 21.8 58.1 21.8 22.9 0 44.8-8.9 61-24.8l-24-26.3c-9.5 9.9-23.2 15.5-37.3 15.1zm-24.8-80.3c6.7-5.2 14.8-7.8 23.3-7.8 7.8-.4 15.5 2.2 21.8 7.4 6.3 5.5 10 12.9 10.4 21.1h-67.7c1.1-8.1 5.6-15.9 12.2-20.7zM971.7 216.4c-14.1-15.2-30-22.6-48.1-22.6-17.4 0-34.4 7-46.6 19.6v-17h-28.5v95.1c0 18.9-4.8 33.7-14.4 44v71H877v-76.2c10.4 14.8 27.4 23.3 45.5 22.9 18.9 0 35.1-7.8 49.2-22.9 14.1-15.5 21.8-36.2 21.1-57.3.8-21.1-7-41-21.1-56.6zm-33.2 88.1c-6.7 7.4-16.3 11.8-26.3 11.8s-19.2-4.1-25.5-11.8c-7-8.5-10.7-19.6-10.4-30.7-.4-11.1 3.3-22.2 10.4-31.1 5.9-7.8 15.5-12.6 25.5-12.6 10.4 0 20 4.4 26.3 12.6 7.4 8.9 11.1 19.6 10.7 31.1.7 11.1-3.3 22.1-10.7 30.7z"/><path class="st0" d="M813.8 151L779 105.5 744.3 151l-34.8 45.5h43.3v85.4c0 23.7 8.9 35.5 26.3 35.5s26.3-11.8 26.3-35.5v-85.4h43.3L813.8 151z"/></g></svg>